<svg xmlns="http://www.w3.org/2000/svg" xmlns:xlink="http://www.w3.org/1999/xlink" id="processonSvg1000" viewBox="97.0 161.0 935.0 822.75" width="935.0" height="822.75"><defs id="ProcessOnDefs1001"><marker id="ProcessOnMarker1042" markerUnits="userSpaceOnUse" orient="auto" markerWidth="16.23606797749979" markerHeight="10.550836550532098" viewBox="-1.0 -1.3763819204711736 16.23606797749979 10.550836550532098" refX="-1.0" refY="3.8990363547948754"><path id="ProcessOnPath1043" d="M12.0 3.8990363547948754L0.0 7.798072709589751V0.0Z" stroke="#323232" stroke-width="2.0" fill="#323232" transform="matrix(1.0,0.0,0.0,1.0,0.0,0.0)"/></marker><marker id="ProcessOnMarker1048" markerUnits="userSpaceOnUse" orient="auto" markerWidth="16.23606797749979" markerHeight="10.550836550532098" viewBox="-1.0 -1.3763819204711736 16.23606797749979 10.550836550532098" refX="-1.0" refY="3.8990363547948754"><path id="ProcessOnPath1049" d="M12.0 3.8990363547948754L0.0 7.798072709589751V0.0Z" stroke="#323232" stroke-width="2.0" fill="#323232" transform="matrix(1.0,0.0,0.0,1.0,0.0,0.0)"/></marker><marker id="ProcessOnMarker1054" markerUnits="userSpaceOnUse" orient="auto" markerWidth="16.23606797749979" markerHeight="10.550836550532098" viewBox="-1.0 -1.3763819204711736 16.23606797749979 10.550836550532098" refX="-1.0" refY="3.8990363547948754"><path id="ProcessOnPath1055" d="M12.0 3.8990363547948754L0.0 7.798072709589751V0.0Z" stroke="#323232" stroke-width="2.0" fill="#323232" transform="matrix(1.0,0.0,0.0,1.0,0.0,0.0)"/></marker><marker id="ProcessOnMarker1060" markerUnits="userSpaceOnUse" orient="auto" markerWidth="16.23606797749979" markerHeight="10.550836550532098" viewBox="-1.0 -1.3763819204711736 16.23606797749979 10.550836550532098" refX="-1.0" refY="3.8990363547948754"><path id="ProcessOnPath1061" d="M12.0 3.8990363547948754L0.0 7.798072709589751V0.0Z" stroke="#323232" stroke-width="2.0" fill="#323232" transform="matrix(1.0,0.0,0.0,1.0,0.0,0.0)"/></marker><marker id="ProcessOnMarker1066" markerUnits="userSpaceOnUse" orient="auto" markerWidth="16.23606797749979" markerHeight="10.550836550532098" viewBox="-1.0 -1.3763819204711736 16.23606797749979 10.550836550532098" refX="-1.0" refY="3.8990363547948754"><path id="ProcessOnPath1067" d="M12.0 3.8990363547948754L0.0 7.798072709589751V0.0Z" stroke="#323232" stroke-width="2.0" fill="#323232" transform="matrix(1.0,0.0,0.0,1.0,0.0,0.0)"/></marker><marker id="ProcessOnMarker1072" markerUnits="userSpaceOnUse" orient="auto" markerWidth="16.23606797749979" markerHeight="10.550836550532098" viewBox="-1.0 -1.3763819204711736 16.23606797749979 10.550836550532098" refX="-1.0" refY="3.8990363547948754"><path id="ProcessOnPath1073" d="M12.0 3.8990363547948754L0.0 7.798072709589751V0.0Z" stroke="#323232" stroke-width="2.0" fill="#323232" transform="matrix(1.0,0.0,0.0,1.0,0.0,0.0)"/></marker><marker id="ProcessOnMarker1078" markerUnits="userSpaceOnUse" orient="auto" markerWidth="16.23606797749979" markerHeight="10.550836550532098" viewBox="-1.0 -1.3763819204711736 16.23606797749979 10.550836550532098" refX="-1.0" refY="3.8990363547948754"><path id="ProcessOnPath1079" d="M12.0 3.8990363547948754L0.0 7.798072709589751V0.0Z" stroke="#323232" stroke-width="2.0" fill="#323232" transform="matrix(1.0,0.0,0.0,1.0,0.0,0.0)"/></marker><marker id="ProcessOnMarker1084" markerUnits="userSpaceOnUse" orient="auto" markerWidth="16.23606797749979" markerHeight="10.550836550532098" viewBox="-1.0 -1.3763819204711736 16.23606797749979 10.550836550532098" refX="-1.0" refY="3.8990363547948754"><path id="ProcessOnPath1085" d="M12.0 3.8990363547948754L0.0 7.798072709589751V0.0Z" stroke="#323232" stroke-width="2.0" fill="#323232" transform="matrix(1.0,0.0,0.0,1.0,0.0,0.0)"/></marker></defs><g id="ProcessOnG1002"><path id="ProcessOnPath1003" d="M97.0 161.0H1032.0V983.75H97.0V161.0Z" fill="none"/><g id="ProcessOnG1004"><g id="ProcessOnG1005" transform="matrix(1.0,0.0,0.0,1.0,117.0,435.5)" opacity="1.0"><path id="ProcessOnPath1006" d="M0.0 0.0L624.0 0.0L624.0 79.0L0.0 79.0Z" stroke="#323232" stroke-width="2.0" stroke-dasharray="none" fill="#ffffff"/></g><g id="ProcessOnG1007" transform="matrix(1.0,0.0,0.0,1.0,151.0,441.0)" opacity="1.0"><path id="ProcessOnPath1008" d="M0.0 35.0C0.0 -11.666666666666666 70.0 -11.666666666666666 70.0 35.0C70.0 81.66666666666667 0.0 81.66666666666667 0.0 35.0Z" stroke="#323232" stroke-width="2.0" stroke-dasharray="none" fill="#ffffff"/></g><g id="ProcessOnG1009" transform="matrix(1.0,0.0,0.0,1.0,270.0,441.0)" opacity="1.0"><path id="ProcessOnPath1010" d="M0.0 35.0C0.0 -11.666666666666666 70.0 -11.666666666666666 70.0 35.0C70.0 81.66666666666667 0.0 81.66666666666667 0.0 35.0Z" stroke="#323232" stroke-width="2.0" stroke-dasharray="none" fill="#ffffff"/></g><g id="ProcessOnG1011" transform="matrix(1.0,0.0,0.0,1.0,383.0,441.0)" opacity="1.0"><path id="ProcessOnPath1012" d="M0.0 35.0C0.0 -11.666666666666666 70.0 -11.666666666666666 70.0 35.0C70.0 81.66666666666667 0.0 81.66666666666667 0.0 35.0Z" stroke="#323232" stroke-width="2.0" stroke-dasharray="none" fill="#ffffff"/></g><g id="ProcessOnG1013" transform="matrix(1.0,0.0,0.0,1.0,512.0,441.0)" opacity="1.0"><path id="ProcessOnPath1014" d="M0.0 35.0C0.0 -11.666666666666666 70.0 -11.666666666666666 70.0 35.0C70.0 81.66666666666667 0.0 81.66666666666667 0.0 35.0Z" stroke="#323232" stroke-width="2.0" stroke-dasharray="none" fill="#ffffff"/></g><g id="ProcessOnG1015" transform="matrix(1.0,0.0,0.0,1.0,770.0,449.0)" opacity="1.0"><path id="ProcessOnPath1016" d="M0.0 0.0L242.0 0.0L242.0 54.0L0.0 54.0Z" stroke="none" stroke-width="0.0" stroke-dasharray="none" fill="none"/></g><g id="ProcessOnG1017" transform="matrix(1.0,0.0,0.0,1.0,794.0,430.0)" opacity="1.0"><path id="ProcessOnPath1018" d="M0.0 0.0L170.0 0.0L186.0 16.0L186.0 92.0L0.0 92.0L0.0 0.0Z" stroke="none" stroke-width="0.0" stroke-dasharray="none" fill="#ffffaa"/><path id="ProcessOnPath1019" d="M170.0 0.0L170.0 16.0L186.0 16.0Z" stroke="none" stroke-width="0.0" stroke-dasharray="none" fill="#cdcd78"/><path id="ProcessOnPath1020" d="M0.0 0.0L170.0 0.0L186.0 16.0L186.0 92.0L0.0 92.0L0.0 0.0Z" stroke="none" stroke-width="0.0" stroke-dasharray="none" fill="none"/><g id="ProcessOnG1021" transform="matrix(1.0,0.0,0.0,1.0,10.0,29.75)"><text id="ProcessOnText1022" fill="#323232" font-size="13" x="82.0" y="13.325" font-family="Arial" font-weight="normal" font-style="normal" text-decoration="none" family="Arial" text-anchor="middle" size="13">TV1，定时器会cascade到这个组</text><text id="ProcessOnText1023" fill="#323232" font-size="13" x="82.0" y="29.575" font-family="Arial" font-weight="normal" font-style="normal" text-decoration="none" family="Arial" text-anchor="middle" size="13">，并且从这个组里面取出来执行回调</text></g></g><g id="ProcessOnG1024" transform="matrix(1.0,0.0,0.0,1.0,587.0,456.0)" opacity="1.0"><path id="ProcessOnPath1025" d="M0.0 0.0L160.0 0.0L160.0 40.0L0.0 40.0Z" stroke="none" stroke-width="0.0" stroke-dasharray="none" fill="none"/><g id="ProcessOnG1026" transform="matrix(1.0,0.0,0.0,1.0,0.0,11.875)"><text id="ProcessOnText1027" fill="#323232" font-size="13" x="79.0" y="13.325" font-family="Arial" font-weight="normal" font-style="normal" text-decoration="none" family="Arial" text-anchor="middle" size="13">......    长度为256</text></g></g><g id="ProcessOnG1028" transform="matrix(1.0,0.0,0.0,1.0,290.5,522.0)" opacity="1.0"><path id="ProcessOnPath1029" d="M14.5 0.0L29.0 14.5L19.43 14.5L19.43 84.0L9.57 84.0L9.57 14.5L0.0 14.5L14.5 0.0Z" stroke="#323232" stroke-width="2.0" stroke-dasharray="none" fill="#ffffff"/><g id="ProcessOnG1030" transform="matrix(1.0,0.0,0.0,1.0,-5.800000000000001,38.074999999999996)"><text id="ProcessOnText1031" fill="#323232" font-size="13" x="19.299999999999997" y="13.325" font-family="Arial" font-weight="normal" font-style="normal" text-decoration="none" family="Arial" text-anchor="middle" size="13">index</text></g></g><g id="ProcessOnG1032" transform="matrix(1.0,0.0,0.0,1.0,363.0,526.0)" opacity="1.0"><path id="ProcessOnPath1033" d="M0.0 0.0L64.0 0.0L80.0 16.0L80.0 100.0L0.0 100.0L0.0 0.0Z" stroke="none" stroke-width="0.0" stroke-dasharray="none" fill="#ffffaa"/><path id="ProcessOnPath1034" d="M64.0 0.0L64.0 16.0L80.0 16.0Z" stroke="none" stroke-width="0.0" stroke-dasharray="none" fill="#cdcd78"/><path id="ProcessOnPath1035" d="M0.0 0.0L64.0 0.0L80.0 16.0L80.0 100.0L0.0 100.0L0.0 0.0Z" stroke="none" stroke-width="0.0" stroke-dasharray="none" fill="none"/><g id="ProcessOnG1036" transform="matrix(1.0,0.0,0.0,1.0,10.0,25.625)"><text id="ProcessOnText1037" fill="#323232" font-size="13" x="29.0" y="13.325" font-family="Arial" font-weight="normal" font-style="normal" text-decoration="none" family="Arial" text-anchor="middle" size="13">index指向</text><text id="ProcessOnText1038" fill="#323232" font-size="13" x="29.0" y="29.575" font-family="Arial" font-weight="normal" font-style="normal" text-decoration="none" family="Arial" text-anchor="middle" size="13">当前活动的</text><text id="ProcessOnText1039" fill="#323232" font-size="13" x="29.0" y="45.825" font-family="Arial" font-weight="normal" font-style="normal" text-decoration="none" family="Arial" text-anchor="middle" size="13">链表头</text></g></g><g id="ProcessOnG1040"><path id="ProcessOnPath1041" d="M186.0 441.0L186.0 410.5L186.0 410.5L186.0 395.2360679774998" stroke="#323232" stroke-width="2.0" stroke-dasharray="none" fill="none" marker-end="url(#ProcessOnMarker1042)"/></g><g id="ProcessOnG1044" transform="matrix(1.0,0.0,0.0,1.0,151.0,310.0)" opacity="1.0"><path id="ProcessOnPath1045" d="M0.0 35.0C0.0 -11.666666666666666 70.0 -11.666666666666666 70.0 35.0C70.0 81.66666666666667 0.0 81.66666666666667 0.0 35.0Z" stroke="#323232" stroke-width="2.0" stroke-dasharray="none" fill="#ffffff"/></g><g id="ProcessOnG1046"><path id="ProcessOnPath1047" d="M305.0 441.0L305.0 408.0L305.0 408.0L305.0 390.2360679774998" stroke="#323232" stroke-width="2.0" stroke-dasharray="none" fill="none" marker-end="url(#ProcessOnMarker1048)"/></g><g id="ProcessOnG1050" transform="matrix(1.0,0.0,0.0,1.0,270.0,305.0)" opacity="1.0"><path id="ProcessOnPath1051" d="M0.0 35.0C0.0 -11.666666666666666 70.0 -11.666666666666666 70.0 35.0C70.0 81.66666666666667 0.0 81.66666666666667 0.0 35.0Z" stroke="#323232" stroke-width="2.0" stroke-dasharray="none" fill="#ffffff"/></g><g id="ProcessOnG1052"><path id="ProcessOnPath1053" d="M418.0 441.0L418.0 410.5L418.0 410.5L418.0 395.2360679774998" stroke="#323232" stroke-width="2.0" stroke-dasharray="none" fill="none" marker-end="url(#ProcessOnMarker1054)"/></g><g id="ProcessOnG1056" transform="matrix(1.0,0.0,0.0,1.0,383.0,310.0)" opacity="1.0"><path id="ProcessOnPath1057" d="M0.0 35.0C0.0 -11.666666666666666 70.0 -11.666666666666666 70.0 35.0C70.0 81.66666666666667 0.0 81.66666666666667 0.0 35.0Z" stroke="#323232" stroke-width="2.0" stroke-dasharray="none" fill="#ffffff"/></g><g id="ProcessOnG1058"><path id="ProcessOnPath1059" d="M547.0 441.0L547.0 410.5L547.0 410.5L547.0 395.2360679774998" stroke="#323232" stroke-width="2.0" stroke-dasharray="none" fill="none" marker-end="url(#ProcessOnMarker1060)"/></g><g id="ProcessOnG1062" transform="matrix(1.0,0.0,0.0,1.0,512.0,310.0)" opacity="1.0"><path id="ProcessOnPath1063" d="M0.0 35.0C0.0 -11.666666666666666 70.0 -11.666666666666666 70.0 35.0C70.0 81.66666666666667 0.0 81.66666666666667 0.0 35.0Z" stroke="#323232" stroke-width="2.0" stroke-dasharray="none" fill="#ffffff"/></g><g id="ProcessOnG1064"><path id="ProcessOnPath1065" d="M186.0 310.0L186.0 282.0L186.0 282.0L186.0 269.2360679774998" stroke="#323232" stroke-width="2.0" stroke-dasharray="none" fill="none" marker-end="url(#ProcessOnMarker1066)"/></g><g id="ProcessOnG1068" transform="matrix(1.0,0.0,0.0,1.0,151.0,184.0)" opacity="1.0"><path id="ProcessOnPath1069" d="M0.0 35.0C0.0 -11.666666666666666 70.0 -11.666666666666666 70.0 35.0C70.0 81.66666666666667 0.0 81.66666666666667 0.0 35.0Z" stroke="#323232" stroke-width="2.0" stroke-dasharray="none" fill="#ffffff"/></g><g id="ProcessOnG1070"><path id="ProcessOnPath1071" d="M305.0 305.0L305.0 278.0L305.0 278.0L305.0 266.2360679774998" stroke="#323232" stroke-width="2.0" stroke-dasharray="none" fill="none" marker-end="url(#ProcessOnMarker1072)"/></g><g id="ProcessOnG1074" transform="matrix(1.0,0.0,0.0,1.0,270.0,181.0)" opacity="1.0"><path id="ProcessOnPath1075" d="M0.0 35.0C0.0 -11.666666666666666 70.0 -11.666666666666666 70.0 35.0C70.0 81.66666666666667 0.0 81.66666666666667 0.0 35.0Z" stroke="#323232" stroke-width="2.0" stroke-dasharray="none" fill="#ffffff"/></g><g id="ProcessOnG1076"><path id="ProcessOnPath1077" d="M418.0 310.0L418.0 282.0L418.0 282.0L418.0 269.2360679774998" stroke="#323232" stroke-width="2.0" stroke-dasharray="none" fill="none" marker-end="url(#ProcessOnMarker1078)"/></g><g id="ProcessOnG1080" transform="matrix(1.0,0.0,0.0,1.0,383.0,184.0)" opacity="1.0"><path id="ProcessOnPath1081" d="M0.0 35.0C0.0 -11.666666666666666 70.0 -11.666666666666666 70.0 35.0C70.0 81.66666666666667 0.0 81.66666666666667 0.0 35.0Z" stroke="#323232" stroke-width="2.0" stroke-dasharray="none" fill="#ffffff"/></g><g id="ProcessOnG1082"><path id="ProcessOnPath1083" d="M547.0 310.0L547.0 282.0L547.0 282.0L547.0 269.2360679774998" stroke="#323232" stroke-width="2.0" stroke-dasharray="none" fill="none" marker-end="url(#ProcessOnMarker1084)"/></g><g id="ProcessOnG1086" transform="matrix(1.0,0.0,0.0,1.0,512.0,184.0)" opacity="1.0"><path id="ProcessOnPath1087" d="M0.0 35.0C0.0 -11.666666666666666 70.0 -11.666666666666666 70.0 35.0C70.0 81.66666666666667 0.0 81.66666666666667 0.0 35.0Z" stroke="#323232" stroke-width="2.0" stroke-dasharray="none" fill="#ffffff"/></g><g id="ProcessOnG1088" transform="matrix(1.0,0.0,0.0,1.0,117.0,741.0)" opacity="1.0"><path id="ProcessOnPath1089" d="M0.0 0.0L630.0 0.0L630.0 81.0L0.0 81.0Z" stroke="#323232" stroke-width="2.0" stroke-dasharray="none" fill="#ffffff"/></g><g id="ProcessOnG1090" transform="matrix(1.0,0.0,0.0,1.0,277.0,765.0)" opacity="1.0"><path id="ProcessOnPath1091" d="M0.0 0.0L296.0 0.0L296.0 28.0L0.0 28.0Z" stroke="none" stroke-width="0.0" stroke-dasharray="none" fill="none"/><g id="ProcessOnG1092" transform="matrix(1.0,0.0,0.0,1.0,0.0,5.875)"><text id="ProcessOnText1093" fill="#323232" font-size="13" x="147.0" y="13.325" font-family="Arial" font-weight="normal" font-style="normal" text-decoration="none" family="Arial" text-anchor="middle" size="13">TV2,TV3,TV4,TV5 结构和TV1一样，长度为64</text></g></g><g id="ProcessOnG1094" transform="matrix(1.0,0.0,0.0,1.0,807.0,742.0)" opacity="1.0"><path id="ProcessOnPath1095" d="M0.0 0.0L157.0 0.0L173.0 16.0L173.0 79.0L0.0 79.0L0.0 0.0Z" stroke="none" stroke-width="0.0" stroke-dasharray="none" fill="#ffffaa"/><path id="ProcessOnPath1096" d="M157.0 0.0L157.0 16.0L173.0 16.0Z" stroke="none" stroke-width="0.0" stroke-dasharray="none" fill="#cdcd78"/><path id="ProcessOnPath1097" d="M0.0 0.0L157.0 0.0L173.0 16.0L173.0 79.0L0.0 79.0L0.0 0.0Z" stroke="none" stroke-width="0.0" stroke-dasharray="none" fill="none"/><g id="ProcessOnG1098" transform="matrix(1.0,0.0,0.0,1.0,10.0,15.125)"><text id="ProcessOnText1099" fill="#323232" font-size="13" x="75.5" y="13.325" font-family="Arial" font-weight="normal" font-style="normal" text-decoration="none" family="Arial" text-anchor="middle" size="13">TV2、TV3、TV4、TV5中的</text><text id="ProcessOnText1100" fill="#323232" font-size="13" x="75.5" y="29.575" font-family="Arial" font-weight="normal" font-style="normal" text-decoration="none" family="Arial" text-anchor="middle" size="13">定时器节点会向前cascade到T</text><text id="ProcessOnText1101" fill="#323232" font-size="13" x="75.5" y="45.825" font-family="Arial" font-weight="normal" font-style="normal" text-decoration="none" family="Arial" text-anchor="middle" size="13">V1中的链表</text></g></g><g id="ProcessOnG1102" transform="matrix(1.0,0.0,0.0,1.0,319.5,890.0)" opacity="1.0"><path id="ProcessOnPath1103" d="M0.0 0.0L156.5 0.0L156.5 69.0L0.0 69.0Z" stroke="#323232" stroke-width="2.0" stroke-dasharray="none" fill="#ffffff"/><g id="ProcessOnG1104" transform="matrix(1.0,0.0,0.0,1.0,10.0,26.375)"><text id="ProcessOnText1105" fill="#323232" font-size="13" x="67.25" y="13.325" font-family="Arial" font-weight="normal" font-style="normal" text-decoration="none" family="Arial" text-anchor="middle" size="13">map_timer</text></g></g><g id="ProcessOnG1106" transform="matrix(1.0,0.0,0.0,1.0,545.0,885.25)" opacity="1.0"><path id="ProcessOnPath1107" d="M0.0 0.0L119.0 0.0L135.0 16.0L135.0 78.5L0.0 78.5L0.0 0.0Z" stroke="none" stroke-width="0.0" stroke-dasharray="none" fill="#ffffaa"/><path id="ProcessOnPath1108" d="M119.0 0.0L119.0 16.0L135.0 16.0Z" stroke="none" stroke-width="0.0" stroke-dasharray="none" fill="#cdcd78"/><path id="ProcessOnPath1109" d="M0.0 0.0L119.0 0.0L135.0 16.0L135.0 78.5L0.0 78.5L0.0 0.0Z" stroke="none" stroke-width="0.0" stroke-dasharray="none" fill="none"/><g id="ProcessOnG1110" transform="matrix(1.0,0.0,0.0,1.0,10.0,14.875)"><text id="ProcessOnText1111" fill="#323232" font-size="13" x="56.5" y="13.325" font-family="Arial" font-weight="normal" font-style="normal" text-decoration="none" family="Arial" text-anchor="middle" size="13">map_timer保存timer</text><text id="ProcessOnText1112" fill="#323232" font-size="13" x="56.5" y="29.575" font-family="Arial" font-weight="normal" font-style="normal" text-decoration="none" family="Arial" text-anchor="middle" size="13">.index到timer的映射</text><text id="ProcessOnText1113" fill="#323232" font-size="13" x="56.5" y="45.825" font-family="Arial" font-weight="normal" font-style="normal" text-decoration="none" family="Arial" text-anchor="middle" size="13">，用来快速查找timer</text></g></g></g></g></svg>